<svg id="Layer_1" enable-background="new 0 0 512 512" height="512" viewBox="0 0 512 512" width="512" xmlns="http://www.w3.org/2000/svg"><path d="m241 135h30v150h-30z" fill="#697c86"/><path d="m256 135h15v150h-15z" fill="#465a61"/><path d="m211 325.005h-30v-85.005h-45v-30h75z" fill="#697c86"/><path d="m331 325.005h-30v-115.005h75v30h-45z" fill="#465a61"/><path d="m256 512 105-60v-122h-52.5l-52.5 60-30 57.625z" fill="#ff9100"/><path d="m256 512-105-60v-122l59.999 4.285 45.001 55.715z" fill="#fdbf00"/><path d="m256 390-105-60 105-60 105 60z" fill="#ffda2d"/><path d="m181 0v150h150v-150z" fill="#76e2f8"/><path d="m256 0h75v150h-75z" fill="#4bb9ec"/><path d="m241 60h30v30h-30z" fill="#697c86"/><path d="m256 60h15v30h-15z" fill="#465a61"/><path d="m0 150v150h151v-150z" fill="#76e2f8"/><path d="m76 150h75v150h-75z" fill="#4bb9ec"/><path d="m61 210h30v30h-30z" fill="#697c86"/><path d="m76 210h15v30h-15z" fill="#465a61"/><path d="m361 150v150h151v-150z" fill="#76e2f8"/><path d="m436 150h76v150h-76z" fill="#4bb9ec"/><path d="m421 210h30v30h-30z" fill="#697c86"/><path d="m436 210h15v30h-15z" fill="#465a61"/></svg>