<svg height="423pt" viewBox="0 -1 423.25333 423" width="423pt" xmlns="http://www.w3.org/2000/svg"><path d="m300.375 91.496094v290.933594h-273.066406v-354.988282h212.84375zm0 0" fill="#fff"/><path d="m300.375 409.738281h-286.722656c-7.546875 0-13.652344-6.109375-13.652344-13.65625v-382.292969c0-7.546874 6.105469-13.652343 13.652344-13.652343h218.453125c7.546875 0 13.65625 6.105469 13.65625 13.652343 0 7.546876-6.109375 13.652344-13.65625 13.652344h-204.796875v354.988282h259.410156v-245.761719c0-7.546875 6.109375-13.652344 13.65625-13.652344s13.652344 6.105469 13.652344 13.652344v259.414062c0 7.546875-6.105469 13.65625-13.652344 13.65625zm0 0" fill="#5d038e"/><path d="m300.375 95.710938h-68.269531c-7.546875 0-13.652344-6.109376-13.652344-13.65625v-68.265626c0-5.519531 3.320313-10.503906 8.425781-12.613281 5.121094-2.132812 10.988282-.945312 14.882813 2.960938l68.265625 68.265625c3.90625 3.90625 5.082031 9.773437 2.960937 14.878906-2.109375 5.109375-7.09375 8.429688-12.613281 8.429688zm-54.613281-27.308594h21.652343l-21.652343-21.652344zm0 0" fill="#5d038e"/><path d="m177.492188 95.710938h-109.226563c-7.546875 0-13.652344-6.109376-13.652344-13.65625 0-7.546876 6.105469-13.652344 13.652344-13.652344h109.226563c7.546874 0 13.65625 6.105468 13.65625 13.652344 0 7.546874-6.109376 13.65625-13.65625 13.65625zm0 0" fill="#5d038e"/><path d="m245.761719 177.628906h-177.496094c-7.546875 0-13.652344-6.105468-13.652344-13.652344 0-7.546874 6.105469-13.652343 13.652344-13.652343h177.496094c7.546875 0 13.652343 6.105469 13.652343 13.652343 0 7.546876-6.105468 13.652344-13.652343 13.652344zm0 0" fill="#e9642c"/><g fill="#5d038e"><path d="m245.761719 232.242188h-177.496094c-7.546875 0-13.652344-6.105469-13.652344-13.652344s6.105469-13.652344 13.652344-13.652344h177.496094c7.546875 0 13.652343 6.105469 13.652343 13.652344s-6.105468 13.652344-13.652343 13.652344zm0 0"/><path d="m99.453125 363.683594c-7.546875 0-13.652344-6.109375-13.652344-13.65625v-22.625c0-7.546875 6.105469-13.652344 13.652344-13.652344s13.652344 6.105469 13.652344 13.652344v22.625c0 7.546875-6.105469 13.65625-13.652344 13.65625zm0 0"/><path d="m147.734375 370.015625c-7.546875 0-13.65625-6.105469-13.65625-13.652344v-19.308593c0-7.546876 6.109375-13.652344 13.65625-13.652344s13.652344 6.105468 13.652344 13.652344v19.308593c0 7.546875-6.105469 13.652344-13.652344 13.652344zm0 0"/><path d="m196 363.683594c-7.546875 0-13.652344-6.109375-13.652344-13.65625v-22.625c0-7.546875 6.105469-13.652344 13.652344-13.652344s13.652344 6.105469 13.652344 13.652344v22.625c0 7.546875-6.105469 13.65625-13.652344 13.65625zm0 0"/></g><path d="m383.722656 256.105469c-34.5-34.503907-90.4375-34.503907-124.941406 0-9.03125 9.03125-15.636719 19.550781-19.941406 30.75h-142.691406c-11.308594 0-20.480469 9.175781-20.480469 20.480469 0 11.308593 9.171875 20.480468 20.480469 20.480468h137.273437c2.035156 19.4375 10.464844 38.332032 25.359375 53.230469 34.503906 34.503906 90.441406 34.503906 124.941406 0 34.503906-34.503906 34.503906-90.441406 0-124.941406zm0 0" fill="#806882"/><path d="m321.253906 420.574219c-27.253906 0-52.867187-10.613281-72.121094-29.878907-13.535156-13.519531-22.972656-30.679687-27.242187-49.226562h-125.746094c-18.824219 0-34.132812-15.308594-34.132812-34.132812 0-18.828126 15.308593-34.132813 34.132812-34.132813h133.789063c4.90625-9.933594 11.34375-18.910156 19.199218-26.761719 19.253907-19.253906 44.867188-29.867187 72.121094-29.867187 27.238282 0 52.851563 10.613281 72.117188 29.878906 19.269531 19.269531 29.882812 44.882813 29.882812 72.125 0 27.253906-10.613281 52.867187-29.882812 72.117187-19.25 19.269532-44.863282 29.878907-72.117188 29.878907zm-225.105468-120.066407c-3.761719 0-6.828126 3.070313-6.828126 6.828126 0 3.761718 3.066407 6.828124 6.828126 6.828124h137.277343c6.988281 0 12.855469 5.28125 13.574219 12.238282 1.800781 17.214844 9.214844 32.773437 21.441406 44.988281 14.105469 14.105469 32.867188 21.878906 52.8125 21.878906 19.945313 0 38.707032-7.773437 52.8125-21.878906 14.105469-14.105469 21.878906-32.867187 21.878906-52.8125 0-19.949219-7.773437-38.707031-21.878906-52.8125-14.105468-14.109375-32.867187-21.882813-52.8125-21.882813-19.945312 0-38.707031 7.773438-52.8125 21.882813-7.386718 7.382813-13.066406 16.132813-16.851562 25.996094-2.027344 5.269531-7.09375 8.746093-12.75 8.746093zm0 0" fill="#5d038e"/><path d="m359.261719 304.785156c-10.347657 10.347656-27.125 10.347656-37.476563 0-10.347656-10.347656-10.347656-27.128906 0-37.476562 10.351563-10.347656 27.128906-10.347656 37.476563 0 10.351562 10.351562 10.351562 27.128906 0 37.476562zm0 0" fill="#5d038e"/></svg>